<svg width="19" height="19" viewBox="0 0 19 19" fill="none" xmlns="http://www.w3.org/2000/svg">
<path d="M15.8333 7.125H11.875C10.7704 7.125 9.875 8.02043 9.875 9.125V13.0833C9.875 14.1879 10.7704 15.0833 11.875 15.0833H15.8333C16.9379 15.0833 17.8333 14.1879 17.8333 13.0833V9.125C17.8333 8.02043 16.9379 7.125 15.8333 7.125Z" stroke="white" stroke-width="1.5" stroke-linecap="round" stroke-linejoin="round"/>
<path d="M4.16667 11.875H3.95833C3.4175 11.875 2.89875 11.6602 2.52375 11.2852C2.14875 10.9102 1.93333 10.3915 1.93333 9.85067V5.89233C1.93333 5.3515 2.14875 4.83275 2.52375 4.45775C2.89875 4.08275 3.4175 3.86733 3.95833 3.86733H7.91667C8.4575 3.86733 8.97625 4.08275 9.35125 4.45775C9.72625 4.83275 9.94167 5.3515 9.94167 5.89233V6.1" stroke="white" stroke-width="1.5" stroke-linecap="round" stroke-linejoin="round"/>
</svg>

