<svg width="23" height="23" viewBox="0 0 23 23" fill="none" xmlns="http://www.w3.org/2000/svg">
<path d="M14.8086 0.223633C14.986 -0.127895 15.5095 -0.0467275 15.5723 0.341797L16.4521 5.82129C16.4851 6.02433 16.7127 6.1301 16.8887 6.02344L22.1445 2.83789C22.4743 2.63804 22.8709 2.96709 22.7354 3.32812L19.5684 11.7637C19.5174 11.8997 19.5751 12.0534 19.7031 12.1221L22.0527 13.3809C22.4059 13.5707 22.2995 14.104 21.9004 14.1436L19.4502 14.3848C19.2419 14.4053 19.1232 14.6329 19.2256 14.8154L21.3027 18.5186C21.4636 18.8067 21.2315 19.1572 20.9033 19.1211L15.25 18.4902C15.1593 18.4802 15.0693 18.5136 15.0068 18.5801L10.9951 22.8496C10.7939 23.0637 10.4384 23.0001 10.3242 22.7295L8.10547 17.4492C8.05681 17.3338 7.93931 17.2624 7.81445 17.2725L5.01562 17.502C4.65493 17.5316 4.43883 17.111 4.67285 16.835L6.28223 14.9385C6.40314 14.796 6.35853 14.5776 6.19238 14.4922L0.22168 11.4355C-0.128045 11.2565 -0.0450372 10.7348 0.342773 10.6729L6.05566 9.76562C6.2661 9.73204 6.36952 9.49014 6.24902 9.31445L0.657227 1.19043C0.414854 0.838363 0.810188 0.399235 1.18555 0.603516L10.2197 5.52441C10.3859 5.61457 10.5929 5.52402 10.6396 5.34082L10.8154 4.65039C10.8994 4.32032 11.3279 4.23405 11.5332 4.50586L11.9199 5.01855C12.0494 5.18952 12.3143 5.16606 12.4111 4.97461L14.8086 0.223633ZM10.207 11.0986C9.88651 11.0986 9.61777 11.3661 9.72266 11.6689C9.80809 11.9155 9.94873 12.1421 10.1367 12.3301C10.4631 12.6564 10.9056 12.8397 11.3672 12.8398C11.8289 12.8398 12.2721 12.6565 12.5986 12.3301C12.7866 12.1421 12.9273 11.9155 13.0127 11.6689C13.1176 11.3661 12.8488 11.0986 12.5283 11.0986H10.207ZM15.2607 11.0986C14.9404 11.0988 14.6715 11.3662 14.7764 11.6689C14.8618 11.9155 15.0025 12.1421 15.1904 12.3301C15.5169 12.6566 15.9601 12.8398 16.4219 12.8398C16.8836 12.8398 17.3268 12.6566 17.6533 12.3301C17.8413 12.1421 17.982 11.9155 18.0674 11.6689C18.1722 11.3662 17.9033 11.0989 17.583 11.0986H15.2607Z" fill="#F5F5F5"/>
</svg>
